# xmcd
#
# Track frame offsets:
#	150
#	13187
#	26962
#	38871
#	54653
#	68139
#	79728
#	92558
#	105353
#	118798
#	130672
#	145562
#
# Disc length: 2121 seconds
#
# Revision: 0
# Processed by: cddbd v1.5.2PL0 Copyright (c) Steve Scherf et al.
# Submitted via: EasyCDDAExtractor 16.0.6.1
#
DISCID=9a08470c
DTITLE=Βιολάρης Μιχάλης - Τα τραγούδια του Βιολάρη
DYEAR=1969
DGENRE=Λαϊκή
TTITLE0=Ο Θοδωρής
TTITLE1=Δίχα της ήλιον εν εσίει
TTITLE2=Μίλα μου για την άνοιξη
TTITLE3=Πάνω στου Κύκκου τα βουνά
TTITLE4=Σάββατο βράδυ
TTITLE5=Αυγερινά μου μάτια
TTITLE6=Εγώ κι η Κατερίνα
TTITLE7=Η Λεμεσσιανή
TTITLE8=Κι αν βγει ο ήλιος δυό φορές
TTITLE9=Ήλιε μου, ήλιε μου
TTITLE10=Είμουνα είκοσι χρονώ
TTITLE11=Πάρε απόψε την καρδιά μου
EXTD=
EXTT0=
EXTT1=
EXTT2=
EXTT3=
EXTT4=
EXTT5=
EXTT6=
EXTT7=
EXTT8=
EXTT9=
EXTT10=
EXTT11=
PLAYORDER=
